<svg xmlns="http://www.w3.org/2000/svg" data-name="Layer 1" width="520.52033" height="575.72373" viewBox="0 0 520.52033 575.72373" xmlns:xlink="http://www.w3.org/1999/xlink"><path d="M637.26637,285.81572a10.85509,10.85509,0,0,1,7.88971,12.92233,10.413,10.413,0,0,1-.545,1.633l27.7671,25.75113L653.52257,330.554l-23.47735-25.13314a10.825,10.825,0,0,1-5.53458-12.00093,10.35947,10.35947,0,0,1,12.47988-7.674Q637.12891,285.77895,637.26637,285.81572Z" transform="translate(-339.73984 -162.13813)" fill="#a0616a"/><path d="M663.213,315.06654l-10.82775,14.6383,27.13151,25.65122a15.61912,15.61912,0,0,0,14.73492,3.801h0a14.96552,14.96552,0,0,0,11.10269-14.157l.71809-59.0455a16.13613,16.13613,0,0,0-14.94676-16.40023h0a15.30328,15.30328,0,0,0-16.43023,14.0865q-.01824.23746-.02908.4754a15.69875,15.69875,0,0,0,.00893,1.69127l3.29941,42.70726Z" transform="translate(-339.73984 -162.13813)" fill="#e6e6e6"/><path d="M585.63363,549.85223l-55.04346-1.22168,21.17725-88.84375L520.7933,374.67645l.0791-.30176L543.7679,286.759l-26.15429-79.75635,50.55859-20.68554,29.81641,103.38281-.07373.271L575.17757,373.1867l30.99219,86.42823-.06494.28418Zm-52.52393-3.167,50.936,1.13184,20.04394-88.07715-31.00781-86.47217,22.82959-83.55322L566.86751,189.01141l-46.77343,19.13672,25.75781,78.54736-.07471.28467-22.89111,87.59863,30.96631,85.08887-.06983.291Z" transform="translate(-339.73984 -162.13813)" fill="#3f3d56"/><path d="M653.82181,729.96408a48.67531,48.67531,0,0,1-39.25924-14.64528c-6.59053-6.94854-11.11322-15.89234-15.48708-24.54163-1.2732-2.51693-2.58928-5.11971-3.9282-7.61426a15.53411,15.53411,0,0,1,1.61173-17.33177,15.27246,15.27246,0,0,1,16.303-5.20878l.63822.18436,5.74416,22.41411c.85694-3.34324,2.69631-10.87591,3.85784-18.25612l.09757-.61813.572.25474a78.1326,78.1326,0,0,1,16.78623,10.11535,80.52869,80.52869,0,0,1,30.11215,60.64309l.0152.697Z" transform="translate(-339.73984 -162.13813)" fill="#f2f2f2"/><path d="M570.12985,200.22742a26.13241,26.13241,0,0,1-12.48,22.28,19.16943,19.16943,0,0,1-1.77,1,25.77973,25.77973,0,0,1-6.9,2.4q-1.005.195-2.04.3a24.17374,24.17374,0,0,1-2.97.18,25.93485,25.93485,0,0,1-8.36-1.37v-.01a21.238,21.238,0,0,1-2.54-1,26.12972,26.12972,0,0,1-15.23-22.42c-.02-.45-.03-.91-.03-1.36,0-.21,0-.43006.01-.64a26.1589,26.1589,0,0,1,52.31.64Z" transform="translate(-339.73984 -162.13813)" fill="#e6e6e6"/><path d="M597.12985,286.72742c0,.32995-.01.65-.03.98a19.03271,19.03271,0,0,1-.15,2,26.19365,26.19365,0,0,1-19.47,22.36c-.8.2-1.6.37-2.42.5a26.2471,26.2471,0,0,1-4.09.32,25.62741,25.62741,0,0,1-3.74-.27c-.68-.09-1.36-.22-2.02-.37a25.76219,25.76219,0,0,1-9.14-4.01995c-.57-.39-1.13-.81-1.66-1.25a26.14784,26.14784,0,0,1,1.29-41.48005v-.01a20.11762,20.11762,0,0,1,1.74-1.15,25.77892,25.77892,0,0,1,9.69-3.49c.68-.1,1.37-.17,2.06-.21.59-.05,1.18-.07,1.78-.07a26.04836,26.04836,0,0,1,6.35.78,23.391,23.391,0,0,1,2.38.72A26.13718,26.13718,0,0,1,597.12985,286.72742Z" transform="translate(-339.73984 -162.13813)" fill="#e6e6e6"/><path d="M574.12985,373.22742a26.13009,26.13009,0,0,1-10.72,21.1,18.97351,18.97351,0,0,1-1.68,1.13,25.24973,25.24973,0,0,1-6.42,2.87q-.975.3-1.98.51a26.45116,26.45116,0,0,1-10.78-.01,23.87626,23.87626,0,0,1-2.55-.68,26.18059,26.18059,0,0,1-18.16-23.52c-.02-.47-.03-.93-.03-1.4,0-.2,0-.4.01-.6a26.12185,26.12185,0,0,1,12.86-21.93,22.07925,22.07925,0,0,1,2.41-1.26,26.02278,26.02278,0,0,1,10.88-2.37c.24,0,.48,0,.72.02a20.15711,20.15711,0,0,1,2.06.13,25.48773,25.48773,0,0,1,7.35,1.89c.63.26,1.24.54,1.84.86A26.13093,26.13093,0,0,1,574.12985,373.22742Z" transform="translate(-339.73984 -162.13813)" fill="#e6e6e6"/><path d="M605.12985,459.67737v.05q0,.99-.09,1.95a26.132,26.132,0,0,1-18.91,23.2v.01a22.20579,22.20579,0,0,1-2.28.54,26.12732,26.12732,0,0,1-4.88.46,24.61668,24.61668,0,0,1-3.11-.19c-.67-.07-1.34-.18-2-.31a25.90968,25.90968,0,0,1-9.68-4.08,21.40108,21.40108,0,0,1-1.72-1.29,26.15127,26.15127,0,0,1-2.02-38.75v-.01c.51-.51,1.04-1,1.59-1.46a25.81527,25.81527,0,0,1,8.71-4.9c.64-.22,1.28-.41,1.94-.57a26.04544,26.04544,0,0,1,6.29-.76q.57,0,1.14.03c.78.03,1.56.1,2.32.2v.01h.01A26.1295,26.1295,0,0,1,605.12985,459.67737Z" transform="translate(-339.73984 -162.13813)" fill="#e6e6e6"/><path d="M584.12985,546.22742a26.15956,26.15956,0,0,1-52.28,1.43c-.03-.48-.04-.95-.04-1.43,0-.19,0-.38.01-.57a26.12361,26.12361,0,0,1,13.64-22.41,23.41028,23.41028,0,0,1,2.68005-1.26,25.89582,25.89582,0,0,1,9.83-1.92q.885,0,1.77.06c.7.05,1.39.12,2.07.22a25.43967,25.43967,0,0,1,6.99,2.07q.915.40494,1.8.9A26.1297,26.1297,0,0,1,584.12985,546.22742Z" transform="translate(-339.73984 -162.13813)" fill="#e6e6e6"/><path d="M776.85983,181.5274c34.54326,68.68508-34.1762,59.09863-44.57918,58.23171-20.03949-1.66995-37.34407,3.73441-35.47686-42.01207.82009-20.09221,22.83673-35.60891,42.94567-35.60891S767.82487,163.56247,776.85983,181.5274Z" transform="translate(-339.73984 -162.13813)" fill="#2f2e41"/><polygon points="428.263 545.794 442.779 545.793 449.685 489.801 428.26 489.802 428.263 545.794" fill="#a0616a"/><path d="M787.34938,709.23878v-9.84126l-3.81631.23312-15.53489.92029-3.59539.22085-2.74865,32.95956-.14724,1.767h10.30746l.33134-1.75472,1.497-7.97607,3.86537,7.97607.84668,1.75472H805.682a6.17461,6.17461,0,0,0,6.13543-6.14771C812.971,723.9638,790.24531,712.3188,787.34938,709.23878Z" transform="translate(-339.73984 -162.13813)" fill="#2f2e41"/><polygon points="362.977 545.794 348.461 545.793 341.555 489.801 362.98 489.802 362.977 545.794" fill="#a0616a"/><path d="M683.37028,709.23878v-9.84126l3.81632.23312,15.53488.92029,3.5954.22085,2.74864,32.95956.14725,1.767H698.90531l-.33134-1.75472-1.497-7.97607-3.86537,7.97607-.84668,1.75472H665.0377a6.17461,6.17461,0,0,1-6.13544-6.14771C657.74872,723.9638,680.47436,712.3188,683.37028,709.23878Z" transform="translate(-339.73984 -162.13813)" fill="#2f2e41"/><path d="M681.05822,427.62509s-9.98527,55.897-4.60859,87.38825c.4102,7.51406-5.43576,30.08985-4.5898,56.51406,1.39053,43.4341,9.599,96.9371,7,109l28-2s.932-11.79615,2.49784-29.88849c.18726-2.16368-2.70271-4.77714-2.49784-7.11151.23909-2.72416,3.57611-5.19842,3.83768-8.12728q.32492-3.638.67165-7.46265c.18386-2.02725-2.7018-3.31543-2.50933-5.41007.23842-2.59472,3.55722-6.01277,3.808-8.69619,1.525-16.315,3.271-34.1192,5.139-51.58371,1.22722-11.4742,2.50706-22.80179,3.81137-33.46414.2829-2.31256-2.04328-5.01128-1.75837-7.256.29124-2.29451,3.1936-4.13334,3.48633-6.34574.41154-3.11029,4.10063-3.73312,4.51367-6.65426.33126-2.34269-2.61364-7.02024-2.2824-9.22308,3.24158-21.55753,6.46132-36.03013,9.24749-35.82614,2.29862.16829,4.94121,10.13642,7.6757,25.70712.345,1.96443,4.0118,4.20775,4.35921,6.3421.36053,2.215-2.59827,4.32717-2.23625,6.70663.38512,2.53131-1.14924,5.5979-.76375,8.29337.37242,2.604,2.66471,4.83186,3.03622,7.5683,4.17483,30.75042,8.25376,69.21526,11.36529,100.8841.2434,2.47728,3.36735,5.16044,3.59849,7.5476.24471,2.52726-2.40415,4.75267-2.17414,7.1629.314,3.29031,4.88972,6.80123,5.17414,9.8371.28149,3.00462-3.728,5.537-3.478,8.25154,1.55427,16.87209,2.478,27.74846,2.478,27.74846l28,1s-.96394-156.42855,3.64465-172.17416,1.53621-72.42987-9.98522-78.72815S681.05822,427.62509,681.05822,427.62509Z" transform="translate(-339.73984 -162.13813)" fill="#2f2e41"/><path d="M720.594,244.04128l-3.40157,17.00787L682.85983,272.5274l12.30106,92.83671-13.24265,60.02438c-3.41565,3.957-4.72113,7.94305-2.64209,11.97564l112.58368,1.16327c2.12024-4.05035,2.84571-8.03936,0-12l-5-8-5-12,1-5-2.52944-10.87181-1.92315-6.80477-3.24635-11.48671,20.19344-93.40348-35.98448-13.943-6.46093-20.97638Z" transform="translate(-339.73984 -162.13813)" fill="#e6e6e6"/><circle cx="393.39355" cy="45.43746" r="28.08891" fill="#a0616a"/><path d="M769.62471,196.81344c-3.37029,3.333-6.0871,5.60161-11.20322,5.60161-12.9397,2.9595-25.25391,4.668-36.13039,3.56637a13.4584,13.4584,0,0,0-1.167-8.07568,10.219,10.219,0,0,1-4.20121,7.27274,43.41493,43.41493,0,0,1-8.91588-2.76343,18.59712,18.59712,0,0,1-11.10054-3.65976c-5.48024-23.63874,15.25507-31.73311,36.77458-29.01629a40.98137,40.98137,0,0,1,7.62751-.72824C757.34783,169.01076,767.72018,179.03769,769.62471,196.81344Z" transform="translate(-339.73984 -162.13813)" fill="#2f2e41"/><path d="M566.3298,314.5274c-.06994.16-.15.31-.23.46l-11.37,22.45c-.84,1.67-1.61,3.36-2.31,5.09h-2.15a62.69379,62.69379,0,0,1,2.67-6l11.16-22Z" transform="translate(-339.73984 -162.13813)" fill="#3f3d56"/><path d="M567.51981,256.5274h-2.2a65.62906,65.62906,0,0,0-8.49-13.67,67.94461,67.94461,0,0,1-8.87994-14.33h2.22a65.38433,65.38433,0,0,0,8.22,13.08A67.31,67.31,0,0,1,567.51981,256.5274Z" transform="translate(-339.73984 -162.13813)" fill="#3f3d56"/><polygon points="231.11 268.389 228.89 268.389 215.37 240.389 217.6 240.389 231.11 268.389" fill="#3f3d56"/><path d="M572.68985,488.5274h2.15c-.15.39-.3.77-.46,1.16l-11,26.84h-2.16l11.31-27.6C572.5798,488.79736,572.63986,488.65741,572.68985,488.5274Z" transform="translate(-339.73984 -162.13813)" fill="#3f3d56"/><path d="M582.68985,488.5274h2.15c-.15.39-.3.77-.46,1.16l-11,26.84h-2.16l11.31-27.6C582.5798,488.79736,582.63986,488.65741,582.68985,488.5274Z" transform="translate(-339.73984 -162.13813)" fill="#3f3d56"/><path d="M576.3298,314.5274c-.07995.15-.15.31-.23.46l-11.37,22.45q-1.275,2.505-2.31,5.09h-2.16a65.36592,65.36592,0,0,1,2.68-6l11.16-22Z" transform="translate(-339.73984 -162.13813)" fill="#3f3d56"/><path d="M577.50986,256.5274h-2.19a65.89031,65.89031,0,0,0-8.49-13.67,67.94461,67.94461,0,0,1-8.87994-14.33h2.21a66.34724,66.34724,0,0,0,8.23,13.08A67.26914,67.26914,0,0,1,577.50986,256.5274Z" transform="translate(-339.73984 -162.13813)" fill="#3f3d56"/><polygon points="241.11 268.389 238.89 268.389 225.38 240.389 227.6 240.389 241.11 268.389" fill="#3f3d56"/><path d="M559.68985,488.5274h2.15c-.15.39-.3.77-.46,1.16l-11,26.84h-2.16l11.31-27.6C559.5798,488.79736,559.63986,488.65741,559.68985,488.5274Z" transform="translate(-339.73984 -162.13813)" fill="#3f3d56"/><path d="M553.3298,314.5274c-.07995.16-.15.31-.23.46l-11.37,22.45q-1.275,2.505-2.3,5.09h-2.16a65.29282,65.29282,0,0,1,2.67-6l11.16-22Z" transform="translate(-339.73984 -162.13813)" fill="#3f3d56"/><path d="M554.51981,256.5274h-2.19a65.67307,65.67307,0,0,0-8.5-13.67,68.19775,68.19775,0,0,1-8.87994-14.33h2.21a66.1753,66.1753,0,0,0,8.23,13.08A67.76919,67.76919,0,0,1,554.51981,256.5274Z" transform="translate(-339.73984 -162.13813)" fill="#3f3d56"/><polygon points="204.6 240.389 218.11 268.389 215.89 268.389 202.37 240.389 204.6 240.389" fill="#3f3d56"/><path d="M405.73984,191.7074h-53a13,13,0,1,0,0,26h53a13,13,0,0,0,0-26Z" transform="translate(-339.73984 -162.13813)" fill="#4545ba"/><rect x="431.42417" y="200.09463" width="102.42963" height="2.00021" transform="matrix(0.9999, -0.01444, 0.01444, 0.9999, -342.5941, -155.14593)" fill="#3f3d56"/><path d="M424.73984,537.7074h-53a13,13,0,1,0,0,26h53a13,13,0,0,0,0-26Z" transform="translate(-339.73984 -162.13813)" fill="#4545ba"/><rect x="450.42417" y="546.09463" width="102.42963" height="2.00021" transform="matrix(0.9999, -0.01444, 0.01444, 0.9999, -347.58974, -154.83539)" fill="#3f3d56"/><path d="M412.73984,364.7074h-53a13,13,0,1,0,0,26h53a13,13,0,0,0,0-26Z" transform="translate(-339.73984 -162.13813)" fill="#4545ba"/><rect x="438.42417" y="373.09463" width="102.42963" height="2.00021" transform="matrix(0.9999, -0.01444, 0.01444, 0.9999, -345.09218, -155.02677)" fill="#3f3d56"/><path d="M753.97983,279.7074h-53a13,13,0,0,0,0,26h53a13,13,0,0,0,0-26Z" transform="translate(-339.73984 -162.13813)" fill="#4545ba"/><polygon points="348.585 128.696 233.117 127.217 233.146 125.217 348.614 126.696 348.585 128.696" fill="#3f3d56"/><path d="M763.97983,451.7074h-53a13,13,0,0,0,0,26h53a13,13,0,0,0,0-26Z" transform="translate(-339.73984 -162.13813)" fill="#4545ba"/><rect x="633.08057" y="409.87992" width="2.00021" height="102.42963" transform="translate(-175.86445 926.31109) rotate(-89.17239)" fill="#3f3d56"/><path d="M859.06948,737.55453l-278.75.30734a1.19068,1.19068,0,1,1,0-2.38137l278.75-.30733a1.19068,1.19068,0,1,1,0,2.38136Z" transform="translate(-339.73984 -162.13813)" fill="#cacaca"/><path d="M733.26637,291.81572a10.85509,10.85509,0,0,1,7.88971,12.92233,10.413,10.413,0,0,1-.545,1.633l27.7671,25.75113L749.52257,336.554l-23.47735-25.13314a10.825,10.825,0,0,1-5.53458-12.00093,10.35947,10.35947,0,0,1,12.47988-7.674Q733.12891,291.77895,733.26637,291.81572Z" transform="translate(-339.73984 -162.13813)" fill="#a0616a"/><path d="M759.213,321.06654l-10.82775,14.6383,27.13151,25.65122a15.61912,15.61912,0,0,0,14.73492,3.801h0a14.96552,14.96552,0,0,0,11.10269-14.157l.71809-59.0455a16.13613,16.13613,0,0,0-14.94676-16.40023h0a15.30328,15.30328,0,0,0-16.43023,14.0865q-.01824.23746-.02908.4754a15.69875,15.69875,0,0,0,.00893,1.69127l3.29941,42.70726Z" transform="translate(-339.73984 -162.13813)" fill="#e6e6e6"/></svg>